<mxfile host="app.diagrams.net" modified="2024-05-28T19:37:01.654Z" agent="Mozilla/5.0 (Windows NT 10.0; Win64; x64) AppleWebKit/537.36 (KHTML, like Gecko) Chrome/125.0.0.0 Safari/537.36 Edg/125.0.0.0" etag="PGS4AeDYwM-LKoYi_fzY" version="24.4.9" type="github">
  <diagram name="Page-1" id="S8xePDh01epb7AxadNGI">
    <mxGraphModel dx="614" dy="1587" grid="1" gridSize="10" guides="1" tooltips="1" connect="1" arrows="1" fold="1" page="1" pageScale="1" pageWidth="850" pageHeight="1100" math="0" shadow="0">
      <root>
        <mxCell id="0" />
        <mxCell id="1" parent="0" />
        <mxCell id="Nsi4iTwaSKx3WzsPCneF-5" value="" style="edgeStyle=orthogonalEdgeStyle;rounded=0;orthogonalLoop=1;jettySize=auto;html=1;fontFamily=JetBrains Mono;" edge="1" parent="1" source="Nsi4iTwaSKx3WzsPCneF-1" target="Nsi4iTwaSKx3WzsPCneF-2">
          <mxGeometry relative="1" as="geometry" />
        </mxCell>
        <mxCell id="Nsi4iTwaSKx3WzsPCneF-6" value="Provides Credentials" style="edgeLabel;html=1;align=center;verticalAlign=middle;resizable=0;points=[];fontFamily=JetBrains Mono;labelBackgroundColor=none;" vertex="1" connectable="0" parent="Nsi4iTwaSKx3WzsPCneF-5">
          <mxGeometry x="0.2162" y="2" relative="1" as="geometry">
            <mxPoint x="-19" y="17" as="offset" />
          </mxGeometry>
        </mxCell>
        <mxCell id="Nsi4iTwaSKx3WzsPCneF-1" value="User" style="sketch=0;pointerEvents=1;shadow=0;dashed=0;html=1;strokeColor=none;fillColor=#505050;labelPosition=center;verticalLabelPosition=bottom;verticalAlign=top;outlineConnect=0;align=center;shape=mxgraph.office.users.user;fontFamily=JetBrains Mono;" vertex="1" parent="1">
          <mxGeometry x="110" y="440" width="46" height="50" as="geometry" />
        </mxCell>
        <mxCell id="Nsi4iTwaSKx3WzsPCneF-4" value="" style="edgeStyle=orthogonalEdgeStyle;rounded=0;orthogonalLoop=1;jettySize=auto;html=1;fontFamily=JetBrains Mono;" edge="1" parent="1" target="Nsi4iTwaSKx3WzsPCneF-3">
          <mxGeometry relative="1" as="geometry">
            <mxPoint x="374" y="540" as="sourcePoint" />
          </mxGeometry>
        </mxCell>
        <mxCell id="Nsi4iTwaSKx3WzsPCneF-13" style="edgeStyle=orthogonalEdgeStyle;rounded=0;orthogonalLoop=1;jettySize=auto;html=1;fontFamily=JetBrains Mono;" edge="1" parent="1" source="Nsi4iTwaSKx3WzsPCneF-2" target="Nsi4iTwaSKx3WzsPCneF-8">
          <mxGeometry relative="1" as="geometry" />
        </mxCell>
        <mxCell id="Nsi4iTwaSKx3WzsPCneF-19" value="&lt;font face=&quot;JetBrains Mono&quot;&gt;Approved?&lt;/font&gt;" style="edgeLabel;html=1;align=center;verticalAlign=middle;resizable=0;points=[];labelBackgroundColor=none;" vertex="1" connectable="0" parent="Nsi4iTwaSKx3WzsPCneF-13">
          <mxGeometry x="0.7519" y="1" relative="1" as="geometry">
            <mxPoint x="-58" y="16" as="offset" />
          </mxGeometry>
        </mxCell>
        <mxCell id="Nsi4iTwaSKx3WzsPCneF-15" style="edgeStyle=orthogonalEdgeStyle;rounded=0;orthogonalLoop=1;jettySize=auto;html=1;fontFamily=JetBrains Mono;" edge="1" parent="1" source="Nsi4iTwaSKx3WzsPCneF-2" target="Nsi4iTwaSKx3WzsPCneF-9">
          <mxGeometry relative="1" as="geometry">
            <Array as="points">
              <mxPoint x="520" y="465" />
              <mxPoint x="520" y="357" />
            </Array>
          </mxGeometry>
        </mxCell>
        <mxCell id="Nsi4iTwaSKx3WzsPCneF-17" style="edgeStyle=orthogonalEdgeStyle;rounded=0;orthogonalLoop=1;jettySize=auto;html=1;fontFamily=JetBrains Mono;" edge="1" parent="1" source="Nsi4iTwaSKx3WzsPCneF-2" target="Nsi4iTwaSKx3WzsPCneF-7">
          <mxGeometry relative="1" as="geometry">
            <Array as="points">
              <mxPoint x="520" y="465" />
              <mxPoint x="520" y="568" />
            </Array>
          </mxGeometry>
        </mxCell>
        <mxCell id="Nsi4iTwaSKx3WzsPCneF-2" value="Authentication Process" style="sketch=0;pointerEvents=1;shadow=0;dashed=0;html=1;strokeColor=none;fillColor=#505050;labelPosition=center;verticalLabelPosition=bottom;outlineConnect=0;verticalAlign=top;align=center;shape=mxgraph.office.clouds.cloud_service_request;fontFamily=JetBrains Mono;" vertex="1" parent="1">
          <mxGeometry x="323" y="425" width="102" height="80" as="geometry" />
        </mxCell>
        <mxCell id="Nsi4iTwaSKx3WzsPCneF-3" value="User Database" style="sketch=0;shadow=0;dashed=0;html=1;strokeColor=none;fillColor=#505050;labelPosition=center;verticalLabelPosition=bottom;verticalAlign=top;outlineConnect=0;align=center;shape=mxgraph.office.databases.address_book_store;fontFamily=JetBrains Mono;" vertex="1" parent="1">
          <mxGeometry x="349" y="620" width="50" height="54" as="geometry" />
        </mxCell>
        <mxCell id="Nsi4iTwaSKx3WzsPCneF-7" value="Services" style="sketch=0;pointerEvents=1;shadow=0;dashed=0;html=1;strokeColor=none;fillColor=#505050;labelPosition=center;verticalLabelPosition=bottom;verticalAlign=top;outlineConnect=0;align=center;shape=mxgraph.office.services.web_services;fontFamily=JetBrains Mono;" vertex="1" parent="1">
          <mxGeometry x="552" y="540" width="60" height="56" as="geometry" />
        </mxCell>
        <mxCell id="Nsi4iTwaSKx3WzsPCneF-8" value="Devices" style="sketch=0;pointerEvents=1;shadow=0;dashed=0;html=1;strokeColor=none;fillColor=#505050;labelPosition=center;verticalLabelPosition=bottom;verticalAlign=top;outlineConnect=0;align=center;shape=mxgraph.office.servers.scom;fontFamily=JetBrains Mono;" vertex="1" parent="1">
          <mxGeometry x="554" y="438.5" width="56" height="53" as="geometry" />
        </mxCell>
        <mxCell id="Nsi4iTwaSKx3WzsPCneF-9" value="Files" style="sketch=0;pointerEvents=1;shadow=0;dashed=0;html=1;strokeColor=none;fillColor=#505050;labelPosition=center;verticalLabelPosition=bottom;verticalAlign=top;outlineConnect=0;align=center;shape=mxgraph.office.concepts.folders;fontFamily=JetBrains Mono;" vertex="1" parent="1">
          <mxGeometry x="552" y="330" width="57" height="53" as="geometry" />
        </mxCell>
        <mxCell id="Nsi4iTwaSKx3WzsPCneF-10" value="" style="verticalLabelPosition=bottom;verticalAlign=top;html=1;shape=mxgraph.basic.tick;fontFamily=JetBrains Mono;" vertex="1" parent="1">
          <mxGeometry x="460" y="400" width="40" height="40" as="geometry" />
        </mxCell>
        <mxCell id="Nsi4iTwaSKx3WzsPCneF-11" value="" style="verticalLabelPosition=bottom;verticalAlign=top;html=1;shape=mxgraph.basic.x;fontFamily=JetBrains Mono;" vertex="1" parent="1">
          <mxGeometry x="460" y="500" width="40" height="40" as="geometry" />
        </mxCell>
        <mxCell id="Nsi4iTwaSKx3WzsPCneF-20" value="Device 1" style="sketch=0;pointerEvents=1;shadow=0;dashed=0;html=1;strokeColor=none;fillColor=#505050;labelPosition=center;verticalLabelPosition=bottom;verticalAlign=top;outlineConnect=0;align=center;shape=mxgraph.office.devices.workstation;fontFamily=JetBrains Mono;" vertex="1" parent="1">
          <mxGeometry x="140" y="810" width="53" height="56" as="geometry" />
        </mxCell>
        <mxCell id="Nsi4iTwaSKx3WzsPCneF-21" value="Local Users" style="sketch=0;pointerEvents=1;shadow=0;dashed=0;html=1;strokeColor=none;fillColor=#505050;labelPosition=center;verticalLabelPosition=bottom;verticalAlign=top;outlineConnect=0;align=center;shape=mxgraph.office.users.users;fontFamily=JetBrains Mono;" vertex="1" parent="1">
          <mxGeometry x="144" y="890" width="46" height="50" as="geometry" />
        </mxCell>
        <mxCell id="Nsi4iTwaSKx3WzsPCneF-24" value="Device 2" style="sketch=0;pointerEvents=1;shadow=0;dashed=0;html=1;strokeColor=none;fillColor=#505050;labelPosition=center;verticalLabelPosition=bottom;verticalAlign=top;outlineConnect=0;align=center;shape=mxgraph.office.devices.workstation;fontFamily=JetBrains Mono;" vertex="1" parent="1">
          <mxGeometry x="240" y="810" width="53" height="56" as="geometry" />
        </mxCell>
        <mxCell id="Nsi4iTwaSKx3WzsPCneF-25" value="Local Users" style="sketch=0;pointerEvents=1;shadow=0;dashed=0;html=1;strokeColor=none;fillColor=#505050;labelPosition=center;verticalLabelPosition=bottom;verticalAlign=top;outlineConnect=0;align=center;shape=mxgraph.office.users.users;fontFamily=JetBrains Mono;" vertex="1" parent="1">
          <mxGeometry x="244" y="890" width="46" height="50" as="geometry" />
        </mxCell>
        <mxCell id="Nsi4iTwaSKx3WzsPCneF-26" value="Device 3" style="sketch=0;pointerEvents=1;shadow=0;dashed=0;html=1;strokeColor=none;fillColor=#505050;labelPosition=center;verticalLabelPosition=bottom;verticalAlign=top;outlineConnect=0;align=center;shape=mxgraph.office.devices.workstation;fontFamily=JetBrains Mono;" vertex="1" parent="1">
          <mxGeometry x="340" y="810" width="53" height="56" as="geometry" />
        </mxCell>
        <mxCell id="Nsi4iTwaSKx3WzsPCneF-27" value="Local Users" style="sketch=0;pointerEvents=1;shadow=0;dashed=0;html=1;strokeColor=none;fillColor=#505050;labelPosition=center;verticalLabelPosition=bottom;verticalAlign=top;outlineConnect=0;align=center;shape=mxgraph.office.users.users;fontFamily=JetBrains Mono;" vertex="1" parent="1">
          <mxGeometry x="344" y="890" width="46" height="50" as="geometry" />
        </mxCell>
        <mxCell id="Nsi4iTwaSKx3WzsPCneF-39" value="" style="edgeStyle=orthogonalEdgeStyle;rounded=0;orthogonalLoop=1;jettySize=auto;html=1;fontFamily=JetBrains Mono;" edge="1" parent="1" source="Nsi4iTwaSKx3WzsPCneF-35" target="Nsi4iTwaSKx3WzsPCneF-37">
          <mxGeometry relative="1" as="geometry" />
        </mxCell>
        <mxCell id="Nsi4iTwaSKx3WzsPCneF-40" style="edgeStyle=orthogonalEdgeStyle;rounded=0;orthogonalLoop=1;jettySize=auto;html=1;fontFamily=JetBrains Mono;" edge="1" parent="1" source="Nsi4iTwaSKx3WzsPCneF-35" target="Nsi4iTwaSKx3WzsPCneF-36">
          <mxGeometry relative="1" as="geometry" />
        </mxCell>
        <mxCell id="Nsi4iTwaSKx3WzsPCneF-41" style="edgeStyle=orthogonalEdgeStyle;rounded=0;orthogonalLoop=1;jettySize=auto;html=1;fontFamily=JetBrains Mono;" edge="1" parent="1" source="Nsi4iTwaSKx3WzsPCneF-35" target="Nsi4iTwaSKx3WzsPCneF-38">
          <mxGeometry relative="1" as="geometry" />
        </mxCell>
        <mxCell id="Nsi4iTwaSKx3WzsPCneF-47" value="" style="edgeStyle=orthogonalEdgeStyle;rounded=0;orthogonalLoop=1;jettySize=auto;html=1;fontFamily=JetBrains Mono;" edge="1" parent="1" source="Nsi4iTwaSKx3WzsPCneF-35" target="Nsi4iTwaSKx3WzsPCneF-37">
          <mxGeometry relative="1" as="geometry" />
        </mxCell>
        <mxCell id="Nsi4iTwaSKx3WzsPCneF-35" value="User" style="sketch=0;pointerEvents=1;shadow=0;dashed=0;html=1;strokeColor=none;fillColor=#505050;labelPosition=center;verticalLabelPosition=top;verticalAlign=bottom;outlineConnect=0;align=center;shape=mxgraph.office.users.user;fontFamily=JetBrains Mono;" vertex="1" parent="1">
          <mxGeometry x="260" y="1140" width="46" height="50" as="geometry" />
        </mxCell>
        <mxCell id="Nsi4iTwaSKx3WzsPCneF-43" style="edgeStyle=orthogonalEdgeStyle;rounded=0;orthogonalLoop=1;jettySize=auto;html=1;fontFamily=JetBrains Mono;" edge="1" parent="1" target="Nsi4iTwaSKx3WzsPCneF-42">
          <mxGeometry relative="1" as="geometry">
            <mxPoint x="199" y="1360" as="sourcePoint" />
            <Array as="points">
              <mxPoint x="199" y="1467" />
            </Array>
          </mxGeometry>
        </mxCell>
        <mxCell id="Nsi4iTwaSKx3WzsPCneF-36" value="Phone" style="sketch=0;pointerEvents=1;shadow=0;dashed=0;html=1;strokeColor=none;fillColor=#505050;labelPosition=center;verticalLabelPosition=bottom;verticalAlign=top;outlineConnect=0;align=center;shape=mxgraph.office.devices.cell_phone_android_proportional;fontFamily=JetBrains Mono;" vertex="1" parent="1">
          <mxGeometry x="190" y="1280" width="17" height="31" as="geometry" />
        </mxCell>
        <mxCell id="Nsi4iTwaSKx3WzsPCneF-44" style="edgeStyle=orthogonalEdgeStyle;rounded=0;orthogonalLoop=1;jettySize=auto;html=1;fontFamily=JetBrains Mono;" edge="1" parent="1" target="Nsi4iTwaSKx3WzsPCneF-42">
          <mxGeometry relative="1" as="geometry">
            <mxPoint x="283" y="1360" as="sourcePoint" />
          </mxGeometry>
        </mxCell>
        <mxCell id="Nsi4iTwaSKx3WzsPCneF-37" value="Laptop" style="sketch=0;pointerEvents=1;shadow=0;dashed=0;html=1;strokeColor=none;fillColor=#505050;labelPosition=center;verticalLabelPosition=bottom;verticalAlign=top;outlineConnect=0;align=center;shape=mxgraph.office.devices.laptop;fontFamily=JetBrains Mono;" vertex="1" parent="1">
          <mxGeometry x="254" y="1280" width="58" height="34" as="geometry" />
        </mxCell>
        <mxCell id="Nsi4iTwaSKx3WzsPCneF-46" style="edgeStyle=orthogonalEdgeStyle;rounded=0;orthogonalLoop=1;jettySize=auto;html=1;fontFamily=JetBrains Mono;" edge="1" parent="1" target="Nsi4iTwaSKx3WzsPCneF-42">
          <mxGeometry relative="1" as="geometry">
            <mxPoint x="377" y="1360" as="sourcePoint" />
            <Array as="points">
              <mxPoint x="377" y="1467" />
            </Array>
          </mxGeometry>
        </mxCell>
        <mxCell id="Nsi4iTwaSKx3WzsPCneF-38" value="Workstation" style="sketch=0;pointerEvents=1;shadow=0;dashed=0;html=1;strokeColor=none;fillColor=#505050;labelPosition=center;verticalLabelPosition=bottom;verticalAlign=top;outlineConnect=0;align=center;shape=mxgraph.office.devices.workstation;fontFamily=JetBrains Mono;" vertex="1" parent="1">
          <mxGeometry x="350" y="1269" width="53" height="56" as="geometry" />
        </mxCell>
        <mxCell id="Nsi4iTwaSKx3WzsPCneF-42" value="Database" style="sketch=0;shadow=0;dashed=0;html=1;strokeColor=none;fillColor=#505050;labelPosition=center;verticalLabelPosition=bottom;verticalAlign=top;outlineConnect=0;align=center;shape=mxgraph.office.databases.address_book_store;fontFamily=JetBrains Mono;" vertex="1" parent="1">
          <mxGeometry x="258" y="1440" width="50" height="54" as="geometry" />
        </mxCell>
      </root>
    </mxGraphModel>
  </diagram>
</mxfile>
